# xmcd
#
# Track frame offsets: 
#        150
#        13794
#        27820
#        42805
#        57387
#        71730
#        107049
#        122355
#        136210
#        150346
#        162959
#        177233
#        192309
#        207887
#        222612
#        236888
#        248965
#        263558
#
# Disc length: 3680 seconds
#
# Revision: 1
# Processed by: cddbd v1.5.2PL0 Copyright (c) Steve Scherf et al.
# Submitted via: ExactAudioCopy v1.3
#
DISCID=fc0e5e12
DTITLE=Benny Goodman - Goodman - All The Cats Join In (The King of Swi
DTITLE=ng)
DYEAR=2001
DGENRE=Blues
TTITLE0=Fascinating Rhythm (NY 20.11.45)
TTITLE1=Lucky (NY 19.12.45)
TTITLE2=Rattle and Roll (NY 19.12.45)
TTITLE3=Swing Angel (Hollywood 30.1.46)
TTITLE4=All The Cats Join In (Hollywood 6.2.46)
TTITLE5=Oh Baby (NY 14.5.46)
TTITLE6=Fly By Night (NY 18.7.46)
TTITLE7=Put That Kiss Back Where You Found It (NY 7.8.46)
TTITLE8=Lonely Moments (Hollywood 28.1.47)
TTITLE9=Whistle Blues (Hollywood 28.1.47)
TTITLE10=Undercurrent Blues (Hollywood 10.2.49)
TTITLE11=Shishkabop (Hollywood 24.3.49)
TTITLE12=The Huckle-Buck (Hollywood 31.3.49)
TTITLE13=Bop Hop (Hollywood 12.4.49)
TTITLE14=Trees (Hollywood 12.4.49)
TTITLE15=Dreazag (Hollywood 12.4.49)
TTITLE16=Fiesta Time (NY 5.7.49)
TTITLE17=Egg Head (Hollywood 15.10.49)
EXTD=YEAR: 2001
EXTT0=
EXTT1=
EXTT2=
EXTT3=
EXTT4=
EXTT5=
EXTT6=
EXTT7=
EXTT8=
EXTT9=
EXTT10=
EXTT11=
EXTT12=
EXTT13=
EXTT14=
EXTT15=
EXTT16=
EXTT17=
PLAYORDER=
